<?xml version="1.0" encoding="UTF-8"?>
<svg version="1.1" xmlns="http://www.w3.org/2000/svg" width="526" height="529">
<path d="M0 0 C173.58 0 347.16 0 526 0 C526 174.57 526 349.14 526 529 C352.42 529 178.84 529 0 529 C0 354.43 0 179.86 0 0 Z " fill="#FDFEFD" transform="translate(0,0)"/>
<path d="M0 0 C15.70396367 11.84405153 22.67246283 27.65365458 30.375 45.1875 C49.87133187 89.51359258 72.10613578 133.65920367 99 174 C99.125 176.6875 99.125 176.6875 99 179 C78.42890631 186.5105606 48.75600993 181.19585864 29.125 172.5625 C22.94039877 169.67068877 16.9086863 166.41752407 11 163 C3.99546203 172.15007213 -2.73444023 181.42985985 -9.1940918 190.97290039 C-13.88595762 197.88607695 -18.77452741 204.63675924 -23.77709961 211.32763672 C-24.64392504 212.51305381 -25.48907469 213.71446016 -26.31860352 214.92626953 C-29.70522889 219.86202203 -29.70522889 219.86202203 -32.9375 221.375 C-37.07908641 220.86786697 -37.87979979 219.14351696 -40.42749023 216.02832031 C-42.91445266 212.82048242 -45.25499934 209.52598644 -47.5625 206.1875 C-48.6136405 204.6816331 -49.66575727 203.17644729 -50.71875 201.671875 C-51.25757813 200.90166016 -51.79640625 200.13144531 -52.3515625 199.33789062 C-55.05048335 195.51015572 -57.8084977 191.72569011 -60.5625 187.9375 C-66.52276677 179.72463994 -72.29502567 171.39168569 -78 163 C-81.40943819 164.26585095 -84.28397829 165.74891638 -87.3125 167.75 C-104.75997242 178.35329305 -124.99530588 181.17704289 -145.0625 181.1875 C-146.30322266 181.19974609 -147.54394531 181.21199219 -148.82226562 181.22460938 C-154.92120418 181.234399 -160.26220122 181.15700311 -166 179 C-166.67260742 177.32006836 -166.67260742 177.32006836 -167 175 C-165.92700195 172.58422852 -165.92700195 172.58422852 -164.23828125 169.87890625 C-163.61969238 168.87142334 -163.00110352 167.86394043 -162.36376953 166.82592773 C-161.34839111 165.21053101 -161.34839111 165.21053101 -160.3125 163.5625 C-159.27074162 161.86795703 -158.22900608 160.17339789 -157.19006348 158.47712708 C-156.48526271 157.32672094 -155.77911599 156.17713837 -155.07165527 155.02836609 C-151.81150694 149.72685129 -148.69474739 144.35089409 -145.625 138.9375 C-145.13781494 138.07882324 -144.65062988 137.22014648 -144.14868164 136.33544922 C-143.20704626 134.67283678 -142.26649375 133.00961048 -141.32714844 131.34570312 C-140.0719319 129.12713791 -138.80716911 126.91434091 -137.5390625 124.703125 C-132.76015904 116.34104792 -128.33734639 107.85482936 -124.09521484 99.20947266 C-122.94243906 96.88387728 -121.76493434 94.57212727 -120.58203125 92.26171875 C-114.9289628 81.17685363 -109.6318109 69.95795098 -104.5 58.625 C-104.18005066 57.91956055 -103.86010132 57.21412109 -103.53045654 56.48730469 C-100.27585677 49.30848177 -97.04634035 42.12007397 -93.87890625 34.90234375 C-93.399375 33.8232373 -92.91984375 32.74413086 -92.42578125 31.63232422 C-91.55522 29.67200237 -90.69595886 27.70659689 -89.8515625 25.73486328 C-82.45058093 9.15848448 -69.02485705 -1.52283689 -52.359375 -8.03125 C-35.24738887 -13.56446707 -14.77255849 -9.82703703 0 0 Z " fill="#EBEBEB" transform="translate(223,229)"/>
<path d="M0 0 C2.04835757 0.01390288 4.09215989 -0.02035148 6.14013672 -0.05834961 C14.20241719 -0.10579775 20.88810634 0.72616032 27.55029297 5.57641602 C29.10253906 7.27197266 29.10253906 7.27197266 30.30029297 8.82641602 C32.44846369 11.24464248 33.45762896 11.56304884 36.74560547 12.03735352 C39.20588384 12.14704746 41.66692761 12.24070825 44.12841797 12.31860352 C50.07749464 12.76682162 53.86376632 14.8011248 57.92529297 19.07641602 C60.6755791 23.30762544 61.80103183 26.02340323 61.84082031 31.13598633 C61.85358002 32.25104553 61.86633972 33.36610474 61.87948608 34.51495361 C61.88171173 35.71601746 61.88393738 36.9170813 61.88623047 38.15454102 C61.89621567 40.01535309 61.89621567 40.01535309 61.90640259 41.91375732 C61.91652997 44.53973915 61.92121958 47.16574671 61.92089844 49.79174805 C61.92073599 52.47463978 61.93460163 55.15684807 61.96191406 57.83959961 C61.99864686 61.71562482 62.00837577 65.59085884 62.01123047 69.46704102 C62.0256015 70.66000793 62.03997253 71.85297485 62.05477905 73.08209229 C62.01052382 81.19246039 61.13287736 86.99383163 55.17529297 92.95141602 C49.44541088 96.49848588 44.1852931 96.87420377 37.64257812 96.86694336 C36.76697739 96.87366058 35.89137665 96.88037781 34.98924255 96.88729858 C32.10588852 96.90623594 29.22276775 96.91020052 26.33935547 96.91235352 C24.32685247 96.91878402 22.31435041 96.92551257 20.30184937 96.93252563 C16.08711581 96.94448747 11.87246417 96.94820754 7.65771484 96.94702148 C2.26867619 96.94681827 -3.11983526 96.97412773 -8.50874901 97.0085659 C-12.66444287 97.03084983 -16.82001011 97.03485858 -20.9757576 97.03380203 C-22.96199995 97.03615545 -24.94824592 97.04496432 -26.93442917 97.06046677 C-29.7177251 97.08015838 -32.49988723 97.07427648 -35.28320312 97.06225586 C-36.09593185 97.07349487 -36.90866058 97.08473389 -37.74601746 97.09631348 C-43.41559167 97.03438504 -47.69678665 95.71498202 -52.44970703 92.57641602 C-56.97062862 87.9365228 -58.6891775 83.42177539 -58.74023438 76.99511719 C-58.75299408 75.90015427 -58.76575378 74.80519135 -58.77890015 73.67704773 C-58.78112579 72.50301895 -58.78335144 71.32899017 -58.78564453 70.11938477 C-58.79230133 68.90245438 -58.79895813 67.68552399 -58.80581665 66.43171692 C-58.81593456 63.85879018 -58.82063394 61.28583724 -58.8203125 58.71289062 C-58.82467945 54.78870063 -58.86099379 50.86564104 -58.89892578 46.94165039 C-58.9047954 44.43839902 -58.90876382 41.93514232 -58.91064453 39.43188477 C-58.92501556 38.26392868 -58.9393866 37.0959726 -58.95419312 35.8926239 C-58.9119989 28.31938436 -58.16596393 22.4149182 -52.66845703 16.73657227 C-51.81767578 16.19323242 -51.81767578 16.19323242 -50.94970703 15.63891602 C-50.38251953 15.25864258 -49.81533203 14.87836914 -49.23095703 14.48657227 C-45.24073787 12.44771028 -41.56378195 12.52423863 -37.13720703 12.45141602 C-32.45233525 12.13317862 -29.92484501 11.81242609 -26.76220703 8.26391602 C-26.26938232 7.66297119 -25.77655762 7.06202637 -25.26879883 6.44287109 C-18.71518411 -0.28137861 -8.77269635 -0.08295942 0 0 Z " fill="#ECECEC" transform="translate(384.44970703125,198.423583984375)"/>
<path d="M0 0 C4.82451814 1.81536061 7.85149224 4.29958328 10 9 C10.58346414 12.24756898 10.76873726 15.49347617 10.94921875 18.78515625 C11.04273369 20.23975502 11.04273369 20.23975502 11.13813782 21.72373962 C11.26784949 23.78865993 11.39098617 25.85400218 11.50805664 27.91967773 C11.6823962 30.97311063 11.87927938 34.02437928 12.08007812 37.07617188 C13.851506 65.29385186 12.78851286 93.40397066 11.60931396 121.61688232 C11.42417483 126.07645105 11.24561481 130.53628347 11.06640625 134.99609375 C10.71716703 143.66432679 10.36035874 152.3322221 10 161 C1.42 161 -7.16 161 -16 161 C-16.91315723 156.43421383 -17.20019645 152.19901894 -17.28125 147.578125 C-17.30886414 146.35074615 -17.30886414 146.35074615 -17.33703613 145.09857178 C-17.39553508 142.48245152 -17.44830284 139.86626286 -17.5 137.25 C-17.56909634 133.83844882 -17.64157282 130.42700324 -17.71875 127.015625 C-17.73789963 126.16360001 -17.75704926 125.31157501 -17.77677917 124.43373108 C-17.90701704 119.21870287 -18.16422916 114.02818174 -18.51953125 108.82421875 C-19.26983845 97.41619497 -19.19662236 85.9903854 -19.1875 74.5625 C-19.18756042 73.40256531 -19.18762085 72.24263062 -19.18768311 71.04754639 C-19.17683298 56.38751107 -18.99406931 41.76131004 -18.125 27.125 C-18.08579437 26.43407257 -18.04658875 25.74314514 -18.00619507 25.03128052 C-17.03087279 8.46132952 -17.03087279 8.46132952 -13.5625 4.2578125 C-8.59608917 0.65716465 -6.23476343 -0.51104618 0 0 Z " fill="#7BD293" transform="translate(416,368)"/>
<path d="M0 0 C15.70396367 11.84405153 22.67246283 27.65365458 30.375 45.1875 C49.87133187 89.51359258 72.10613578 133.65920367 99 174 C99.125 176.6875 99.125 176.6875 99 179 C78.42890631 186.5105606 48.75600993 181.19585864 29.125 172.5625 C22.94039877 169.67068877 16.9086863 166.41752407 11 163 C3.99546203 172.15007213 -2.73444023 181.42985985 -9.1940918 190.97290039 C-13.88595762 197.88607695 -18.77452741 204.63675924 -23.77709961 211.32763672 C-24.64392504 212.51305381 -25.48907469 213.71446016 -26.31860352 214.92626953 C-29.70522889 219.86202203 -29.70522889 219.86202203 -32.9375 221.375 C-37.07908641 220.86786697 -37.87979979 219.14351696 -40.42749023 216.02832031 C-42.91445266 212.82048242 -45.25499934 209.52598644 -47.5625 206.1875 C-48.6136405 204.6816331 -49.66575727 203.17644729 -50.71875 201.671875 C-51.25757813 200.90166016 -51.79640625 200.13144531 -52.3515625 199.33789062 C-55.05048335 195.51015572 -57.8084977 191.72569011 -60.5625 187.9375 C-66.52276677 179.72463994 -72.29502567 171.39168569 -78 163 C-81.40943819 164.26585095 -84.28397829 165.74891638 -87.3125 167.75 C-104.75997242 178.35329305 -124.99530588 181.17704289 -145.0625 181.1875 C-146.30322266 181.19974609 -147.54394531 181.21199219 -148.82226562 181.22460938 C-154.92120418 181.234399 -160.26220122 181.15700311 -166 179 C-166.67260742 177.32006836 -166.67260742 177.32006836 -167 175 C-165.92700195 172.58422852 -165.92700195 172.58422852 -164.23828125 169.87890625 C-163.61969238 168.87142334 -163.00110352 167.86394043 -162.36376953 166.82592773 C-161.34839111 165.21053101 -161.34839111 165.21053101 -160.3125 163.5625 C-159.27074162 161.86795703 -158.22900608 160.17339789 -157.19006348 158.47712708 C-156.48526271 157.32672094 -155.77911599 156.17713837 -155.07165527 155.02836609 C-151.81150694 149.72685129 -148.69474739 144.35089409 -145.625 138.9375 C-145.13781494 138.07882324 -144.65062988 137.22014648 -144.14868164 136.33544922 C-143.20704626 134.67283678 -142.26649375 133.00961048 -141.32714844 131.34570312 C-140.0719319 129.12713791 -138.80716911 126.91434091 -137.5390625 124.703125 C-132.76015904 116.34104792 -128.33734639 107.85482936 -124.09521484 99.20947266 C-122.94243906 96.88387728 -121.76493434 94.57212727 -120.58203125 92.26171875 C-114.9289628 81.17685363 -109.6318109 69.95795098 -104.5 58.625 C-104.18005066 57.91956055 -103.86010132 57.21412109 -103.53045654 56.48730469 C-100.27585677 49.30848177 -97.04634035 42.12007397 -93.87890625 34.90234375 C-93.399375 33.8232373 -92.91984375 32.74413086 -92.42578125 31.63232422 C-91.55522 29.67200237 -90.69595886 27.70659689 -89.8515625 25.73486328 C-82.45058093 9.15848448 -69.02485705 -1.52283689 -52.359375 -8.03125 C-35.24738887 -13.56446707 -14.77255849 -9.82703703 0 0 Z M-79.68554688 14.25048828 C-86.27619933 23.02251939 -90.22290442 33.92800674 -94.65872192 43.89523315 C-106.28003156 69.97764504 -118.2847236 95.94016836 -132 121 C-132.55510254 122.01723145 -133.11020508 123.03446289 -133.68212891 124.08251953 C-140.15116552 135.90832416 -146.7044416 147.6810931 -153.625 159.25 C-154.09728027 160.04075928 -154.56956055 160.83151855 -155.05615234 161.64624023 C-157.19291258 165.17792611 -159.39334997 168.59309958 -161.8359375 171.921875 C-164.19171111 174.64556749 -164.19171111 174.64556749 -164 177 C-137.98586341 182.87320639 -107.03846916 176.44941172 -84.55078125 162.61328125 C-83.28814453 161.81470703 -83.28814453 161.81470703 -82 161 C-80.33536268 159.99662551 -78.66931472 158.99557328 -77 158 C-76.72397949 158.57782227 -76.44795898 159.15564453 -76.16357422 159.75097656 C-74.15515107 163.63297279 -71.59652342 167.15141613 -69.125 170.75 C-68.54492188 171.59691406 -67.96484375 172.44382812 -67.3671875 173.31640625 C-63.241091 179.29924618 -58.95265059 185.13145344 -54.54394531 190.90771484 C-49.86536092 197.07916762 -45.51029492 203.45865894 -41.1875 209.8828125 C-40.41019531 211.03523438 -40.41019531 211.03523438 -39.6171875 212.2109375 C-38.93052002 213.23646729 -38.93052002 213.23646729 -38.22998047 214.28271484 C-36.97444712 216.13430392 -36.97444712 216.13430392 -35 218 C-34.01 218 -33.02 218 -32 218 C-30.55889015 216.47906405 -30.55889015 216.47906405 -29.28515625 214.40625 C-28.77017578 213.63152344 -28.25519531 212.85679687 -27.72460938 212.05859375 C-27.17611328 211.21425781 -26.62761719 210.36992187 -26.0625 209.5 C-21.86855423 203.19734018 -17.60510181 197.00936884 -13 191 C-7.8761966 184.28844272 -3.07784937 177.38519984 1.63671875 170.38085938 C4.28542738 166.4544991 6.96294437 162.64300663 10 159 C13.7299551 160.35210873 16.7367688 162.06902855 20 164.3125 C37.56424501 175.58542423 58.8744151 178.19393115 79.3125 178.125 C80.47845703 178.12886719 81.64441406 178.13273438 82.84570312 178.13671875 C83.96525391 178.13542969 85.08480469 178.13414062 86.23828125 178.1328125 C87.24930908 178.13168457 88.26033691 178.13055664 89.30200195 178.12939453 C91.69820729 178.01447382 93.71127429 177.6862429 96 177 C94.60301624 173.23547844 92.87004919 169.92015493 90.796875 166.484375 C90.15347168 165.41123047 89.51006836 164.33808594 88.84716797 163.23242188 C88.5057074 162.66579834 88.16424683 162.0991748 87.81243896 161.51538086 C74.34081482 139.13052092 61.85826049 116.27805766 50 93 C49.42523926 91.87537354 49.42523926 91.87537354 48.83886719 90.72802734 C46.51559147 86.17309487 44.24808349 81.59244664 42 77 C41.50032715 75.98276855 41.0006543 74.96553711 40.48583984 73.91748047 C38.71325631 70.30226901 36.94744629 66.68387623 35.1875 63.0625 C34.88527527 62.44105103 34.58305054 61.81960205 34.27166748 61.17932129 C29.51423641 51.37368669 25.02518084 41.47624201 20.90307617 31.38305664 C14.06426461 15.19081896 3.14730542 3.61957578 -13 -3.25 C-37.53940828 -12.38094262 -62.56467384 -5.44110586 -79.68554688 14.25048828 Z " fill="#8B8A8A" transform="translate(223,229)"/>
<path d="M0 0 C4.0854941 0.8511446 5.38280168 2.40180341 8 5.625 C8.70864726 8.39203713 9.12233284 10.69272554 9.36328125 13.49609375 C9.44499069 14.2548732 9.52670013 15.01365265 9.61088562 15.79542542 C9.77962809 17.40057106 9.93785067 19.00685329 10.08618164 20.61401367 C10.30913846 23.02613231 10.56251869 25.43339162 10.82226562 27.84179688 C13.83562287 56.82898948 13.83562287 56.82898948 6.6875 66.875 C0.10616516 73.60938914 -6.20698391 75.85802532 -15.3125 76.25 C-17.849375 76.37375 -20.38625 76.4975 -23 76.625 C-23 71.345 -23 66.065 -23 60.625 C-21.453125 60.08875 -19.90625 59.5525 -18.3125 59 C-12.45917422 56.65701387 -9.63254012 54.06253166 -6.890625 48.2890625 C-4.0808274 39.88431705 -6.16510269 29.8015867 -7.28808594 21.1574707 C-9.05711191 7.14848481 -9.05711191 7.14848481 -5.875 2.5625 C-3 0.625 -3 0.625 0 0 Z " fill="#7CD294" transform="translate(454,390.375)"/>
<path d="M0 0 C4.60943915 4.19204899 8.54832134 8.66723065 9.2109375 15.0234375 C9.49726412 21.476799 8.64573682 27.09083484 4.1953125 31.984375 C-1.4676495 37.15583464 -5.94537463 39.4816134 -13.66796875 39.23828125 C-19.77710084 38.61406507 -23.68516114 36.71494985 -27.875 32.1875 C-31.93139845 27.11469192 -33.476636 22.66033673 -33.23828125 16.07421875 C-32.41851949 8.93825982 -29.55506379 4.85784574 -23.97265625 0.41015625 C-16.93282362 -4.62227856 -7.38997519 -4.53612299 0 0 Z " fill="#FEFEFE" transform="translate(398,232)"/>
<path d="M0 0 C2.60636778 2.60636778 2.57461436 4.33951143 3.1484375 7.9609375 C3.34953125 9.15460938 3.550625 10.34828125 3.7578125 11.578125 C4.16783379 14.10053443 4.57152703 16.62398099 4.96875 19.1484375 C5.17242187 20.3446875 5.37609375 21.5409375 5.5859375 22.7734375 C5.7617334 23.87091309 5.9375293 24.96838867 6.11865234 26.09912109 C7.12985717 29.42741355 8.33778042 30.81265248 11 33 C13.56893838 34.28446919 15.76576337 34.32977144 18.625 34.5625 C20.39875 34.706875 22.1725 34.85125 24 35 C24 39.29 24 43.58 24 48 C12.92521009 48.66448739 5.52918648 48.06011953 -3.5 41.0625 C-7.02541763 36.21505076 -7.33996894 30.75044539 -7.5625 24.9375 C-7.75455935 20.53648046 -8.07354378 16.31610954 -9 12 C-9.30862222 8.9542528 -9.42150122 6.0383213 -9 3 C-6.41988736 -0.153471 -3.96231566 -0.52135732 0 0 Z " fill="#7DD395" transform="translate(371,440)"/>
<path d="M0 0 C0.66 0 1.32 0 2 0 C2.08636719 0.72445312 2.17273438 1.44890625 2.26171875 2.1953125 C3.20186619 8.66421693 4.1651826 12.5105267 9 17 C11.14980497 18.37254588 11.14980497 18.37254588 13 19 C13 19.66 13 20.32 13 21 C12.26394531 21.09796875 11.52789062 21.1959375 10.76953125 21.296875 C2.15460868 22.61699523 -1.72959314 24.97279086 -7 32 C-7.08636719 31.43152344 -7.17273438 30.86304687 -7.26171875 30.27734375 C-8.30587678 24.53926431 -9.92766649 20.25743958 -14 16 C-16.6526218 14.15524326 -16.6526218 14.15524326 -19 13 C-19 12.67 -19 12.34 -19 12 C-18.35933594 11.92523438 -17.71867187 11.85046875 -17.05859375 11.7734375 C-10.59889251 10.7914859 -6.26876654 9.06916027 -2 4 C-1.29075071 2.68882203 -0.61198021 1.35930219 0 0 Z " fill="#BEE8CB" transform="translate(410,96)"/>
<path d="M0 0 C3.5 0.3125 3.5 0.3125 6.5 1.3125 C6.83 0.9825 7.16 0.6525 7.5 0.3125 C10.50331018 0.17056663 13.49217134 0.27013622 16.5 0.3125 C16.5 4.6025 16.5 8.8925 16.5 13.3125 C15.51 13.3125 14.52 13.3125 13.5 13.3125 C13.5 11.6625 13.5 10.0125 13.5 8.3125 C12.51 8.3125 11.52 8.3125 10.5 8.3125 C9.84 9.9625 9.18 11.6125 8.5 13.3125 C6.56318839 13.39357583 4.6254066 13.45172475 2.6875 13.5 C1.60855469 13.53480469 0.52960938 13.56960937 -0.58203125 13.60546875 C-3.5 13.3125 -3.5 13.3125 -5.36328125 11.984375 C-7.14212221 9.36807283 -6.87697864 7.39115888 -6.5 4.3125 C-4.85838761 0.64301348 -4.0590028 0.36241096 0 0 Z " fill="#ECF9F0" transform="translate(339.5,136.6875)"/>
<path d="M0 0 C0.99 0 1.98 0 3 0 C3 1.98 3 3.96 3 6 C3.78375 6.12375 4.5675 6.2475 5.375 6.375 C8 7 8 7 10 9 C10.375 12.4375 10.375 12.4375 10 16 C8.1875 17.9375 8.1875 17.9375 6 19 C5.01 19 4.02 19 3 19 C3 20.65 3 22.3 3 24 C2.01 24 1.02 24 0 24 C0 22.35 0 20.7 0 19 C-0.78375 18.896875 -1.5675 18.79375 -2.375 18.6875 C-5 18 -5 18 -7 15 C-7.375 12.5625 -7.375 12.5625 -7 10 C-5.1875 7.6875 -5.1875 7.6875 -3 6 C-2.01 6 -1.02 6 0 6 C0 4.02 0 2.04 0 0 Z " fill="#40C967" transform="translate(271,59)"/>
<path d="M0 0 C2.4375 2.1875 2.4375 2.1875 4 5 C4.08104732 8.97131876 3.4688579 10.47755834 0.8125 13.4375 C-2 15 -2 15 -5.125 14.9375 C-9.31553861 13.57102002 -9.31553861 13.57102002 -11 11 C-11.85736616 7.90029156 -12.25878885 5.84694533 -11.3125 2.75 C-8.17345982 -1.43538691 -4.82053134 -1.50641605 0 0 Z " fill="#FEFEFE" transform="translate(426,228)"/>
<path d="M0 0 C0.99 0 1.98 0 3 0 C3 1.98 3 3.96 3 6 C3.78375 6.268125 4.5675 6.53625 5.375 6.8125 C8 8 8 8 10 11 C9.83934531 14.21309388 9.45678916 15.55843714 7.125 17.8125 C5 19 5 19 2 19 C2 20.32 2 21.64 2 23 C1.34 23 0.68 23 0 23 C0 21.68 0 20.36 0 19 C-0.78375 18.87625 -1.5675 18.7525 -2.375 18.625 C-5 18 -5 18 -7 16 C-7.125 13.375 -7.125 13.375 -7 11 C-6.34 10.67 -5.68 10.34 -5 10 C-4.731875 10.78375 -4.46375 11.5675 -4.1875 12.375 C-3.15185568 15.28114923 -3.15185568 15.28114923 0 17 C0 14.03 0 11.06 0 8 C-0.99 8 -1.98 8 -3 8 C-3 7.34 -3 6.68 -3 6 C-2.01 6 -1.02 6 0 6 C0 4.02 0 2.04 0 0 Z " fill="#3FC866" transform="translate(171,59)"/>
<path d="M0 0 C2.97 0 5.94 0 9 0 C12 3 12 3 12.375 5.9375 C11.95716454 9.34982295 11.59814888 10.74827097 9 13 C5.8125 13.25 5.8125 13.25 3 13 C3 14.65 3 16.3 3 18 C2.01 18 1.02 18 0 18 C0 12.06 0 6.12 0 0 Z " fill="#41C967" transform="translate(174,101)"/>
<path d="M0 0 C8 0 8 0 10.5625 1.5625 C12 4 12 4 11.875 7.625 C11 11 11 11 9 13 C5.875 13.125 5.875 13.125 3 13 C3 14.65 3 16.3 3 18 C2.01 18 1.02 18 0 18 C0 12.06 0 6.12 0 0 Z " fill="#45CA6A" transform="translate(147,137)"/>
<path d="M0 0 C3.3 0 6.6 0 10 0 C11.125 4.75 11.125 4.75 10 7 C10.66 7 11.32 7 12 7 C11.125 11.875 11.125 11.875 10 13 C6.66381769 13.14257189 3.34024394 13.04228157 0 13 C0 8.71 0 4.42 0 0 Z " fill="#4BCC6F" transform="translate(182,137)"/>
<path d="M0 0 C2 1.5625 2 1.5625 3 4 C2.67272727 10.32727273 2.67272727 10.32727273 0 13 C-3.4375 13.375 -3.4375 13.375 -7 13 C-9.66266871 10.76679398 -9.95347082 9.3799883 -10.375 5.9375 C-10 3 -10 3 -8.9375 1.125 C-5.85928089 -0.66235303 -3.47093932 -0.43386742 0 0 Z " fill="#4DCC71" transform="translate(141,137)"/>
<path d="M0 0 C3.5625 0.3125 3.5625 0.3125 5.5 1.4375 C7.07358304 4.21441125 6.94670899 6.17479327 6.5625 9.3125 C5.5 11.6875 5.5 11.6875 3.5625 13.3125 C0.0625 13.8125 0.0625 13.8125 -3.4375 13.3125 C-5.4375 11.75 -5.4375 11.75 -6.4375 9.3125 C-5.98395669 0.54399606 -5.98395669 0.54399606 0 0 Z " fill="#49CB6E" transform="translate(75.4375,100.6875)"/>
<path d="M0 0 C3.5625 0.375 3.5625 0.375 5.5625 1.9375 C6.98220326 5.39802669 6.42551515 7.79016784 5.5625 11.375 C3.5625 13.375 3.5625 13.375 0.125 13.75 C-3.4375 13.375 -3.4375 13.375 -5.4375 11.8125 C-6.85720326 8.35197331 -6.30051515 5.95983216 -5.4375 2.375 C-3.4375 0.375 -3.4375 0.375 0 0 Z " fill="#44CA6A" transform="translate(338.4375,64.625)"/>
<path d="M0 0 C8 0 8 0 10 1 C11.70552828 4.41105656 11.36027104 7.21715403 11 11 C7.5647952 13.29013653 6.014669 13.17842973 2 13 C2 14.32 2 15.64 2 17 C1.34 17 0.68 17 0 17 C0 11.39 0 5.78 0 0 Z " fill="#48CB6D" transform="translate(237,65)"/>
<path d="M0 0 C8 0 8 0 10 1.0625 C11.58433618 4.13215135 11.36248449 6.61681143 11 10 C9.875 11.9375 9.875 11.9375 8 13 C4.8125 13.1875 4.8125 13.1875 2 13 C2 14.32 2 15.64 2 17 C1.34 17 0.68 17 0 17 C0 11.39 0 5.78 0 0 Z " fill="#48CB6D" transform="translate(113,101)"/>
<path d="M0 0 C3.5625 0.375 3.5625 0.375 5.5625 1.9375 C6.99385511 5.42642809 6.496466 7.77255972 5.5625 11.375 C2.09207297 13.68861802 0.64415827 13.88520728 -3.4375 13.375 C-5.375 11.8125 -5.375 11.8125 -6.4375 9.375 C-5.98636507 0.65305801 -5.98636507 0.65305801 0 0 Z " fill="#4DCC71" transform="translate(364.4375,64.625)"/>
<path d="M0 0 C3.5625 0.375 3.5625 0.375 5.5625 1.9375 C6.99385511 5.42642809 6.496466 7.77255972 5.5625 11.375 C2.09207297 13.68861802 0.64415827 13.88520728 -3.4375 13.375 C-5.375 11.8125 -5.375 11.8125 -6.4375 9.375 C-5.98636507 0.65305801 -5.98636507 0.65305801 0 0 Z " fill="#4DCC71" transform="translate(216.4375,64.625)"/>
<path d="M0 0 C2 2 2 2 2.265625 4.09375 C2.26046875 4.8878125 2.2553125 5.681875 2.25 6.5 C2.25515625 7.2940625 2.2603125 8.088125 2.265625 8.90625 C2 11 2 11 0 13 C-3.4375 13.375 -3.4375 13.375 -7 13 C-9.66266871 10.76679398 -9.95347082 9.3799883 -10.375 5.9375 C-10 3 -10 3 -8.9375 1.125 C-5.93267901 -0.61973477 -3.39189869 -0.30835443 0 0 Z " fill="#43CA69" transform="translate(193,65)"/>
<path d="M0 0 C3.5 0.25 3.5 0.25 5.5 2.25 C5.765625 4.34375 5.765625 4.34375 5.75 6.75 C5.75515625 7.5440625 5.7603125 8.338125 5.765625 9.15625 C5.5 11.25 5.5 11.25 3.5 13.25 C-2.64231015 13.9200702 -2.64231015 13.9200702 -5.5 11.6875 C-6.91970326 8.22697331 -6.36301515 5.83483216 -5.5 2.25 C-3.5 0.25 -3.5 0.25 0 0 Z " fill="#42C968" transform="translate(202.5,136.75)"/>
<path d="M0 0 C3.5 0.25 3.5 0.25 5.5 2.25 C5.765625 4.34375 5.765625 4.34375 5.75 6.75 C5.75515625 7.5440625 5.7603125 8.338125 5.765625 9.15625 C5.5 11.25 5.5 11.25 3.5 13.25 C-2.64231015 13.9200702 -2.64231015 13.9200702 -5.5 11.6875 C-6.91970326 8.22697331 -6.36301515 5.83483216 -5.5 2.25 C-3.5 0.25 -3.5 0.25 0 0 Z " fill="#42C968" transform="translate(167.5,136.75)"/>
<path d="M0 0 C6.8359375 -0.1953125 6.8359375 -0.1953125 9 0 C11 2 11 2 11.1953125 4.3828125 C11.17210938 5.28773437 11.14890625 6.19265625 11.125 7.125 C11.10695313 8.03507812 11.08890625 8.94515625 11.0703125 9.8828125 C11.04710938 10.58148438 11.02390625 11.28015625 11 12 C7.57067929 13.71466036 3.78283935 13.05404056 0 13 C0 8.71 0 4.42 0 0 Z " fill="#52CE75" transform="translate(85,101)"/>
<path d="M0 0 C2.97 0 5.94 0 9 0 C10.4617773 4.3853319 11.44935236 7.52018362 10 12 C9 13 9 13 6.93359375 13.09765625 C3.46679688 13.04882812 3.46679688 13.04882812 0 13 C0 8.71 0 4.42 0 0 Z " fill="#54CE77" transform="translate(279,137)"/>
<path d="M0 0 C1.875 0.3125 1.875 0.3125 4 1 C4.66 1.99 5.32 2.98 6 4 C6.33 2.68 6.66 1.36 7 0 C7.99 0 8.98 0 10 0 C10.33 0.99 10.66 1.98 11 3 C11.99 2.01 12.98 1.02 14 0 C14.99 0.33 15.98 0.66 17 1 C16.01 2.32 15.02 3.64 14 5 C14.28875 5.5775 14.5775 6.155 14.875 6.75 C16.4375 9.875 16.4375 9.875 18 13 C16.68 13 15.36 13 14 13 C12.25 11 12.25 11 11 9 C10.67 10.32 10.34 11.64 10 13 C9.01 13 8.02 13 7 13 C6.67 11.35 6.34 9.7 6 8 C4.68 9.65 3.36 11.3 2 13 C1.01 12.67 0.02 12.34 -1 12 C0.32 10.35 1.64 8.7 3 7 C2.690625 6.401875 2.38125 5.80375 2.0625 5.1875 C1 3 1 3 0 0 Z " fill="#41C968" transform="translate(89,65)"/>
<path d="M0 0 C1.32 0.33 2.64 0.66 4 1 C5.75 4.0625 5.75 4.0625 7 7 C8.32 4.69 9.64 2.38 11 0 C11.99 0 12.98 0 14 0 C15.00496852 3.01490557 15.10335303 5.04181692 15.0625 8.1875 C15.05347656 9.08855469 15.04445313 9.98960938 15.03515625 10.91796875 C15.02355469 11.60503906 15.01195312 12.29210937 15 13 C14.01 13 13.02 13 12 13 C11.67 10.69 11.34 8.38 11 6 C10.34 7.65 9.68 9.3 9 11 C7.0625 10.625 7.0625 10.625 5 10 C4.67 9.34 4.34 8.68 4 8 C3.67 9.65 3.34 11.3 3 13 C2.01 13 1.02 13 0 13 C0 8.71 0 4.42 0 0 Z " fill="#49CB6E" transform="translate(257,101)"/>
<path d="M0 0 C1.875 1.1875 1.875 1.1875 3 3 C3.1875 5.6875 3.1875 5.6875 3 8 C0.36 8 -2.28 8 -5 8 C-5 8.66 -5 9.32 -5 10 C-2.69 10 -0.38 10 2 10 C2 10.99 2 11.98 2 13 C-5.32215357 13.36010591 -5.32215357 13.36010591 -8 11.9375 C-9.58433618 8.86784865 -9.36248449 6.38318857 -9 3 C-6.84332735 -0.71426957 -4.0099826 -0.50124783 0 0 Z " fill="#6FD68C" transform="translate(95,137)"/>
<path d="M0 0 C0.99 0 1.98 0 3 0 C3 2.31 3 4.62 3 7 C5.64 7 8.28 7 11 7 C11 4.69 11 2.38 11 0 C11.99 0 12.98 0 14 0 C14 5.61 14 11.22 14 17 C13.01 17 12.02 17 11 17 C11 14.36 11 11.72 11 9 C8.36 9 5.72 9 3 9 C3 11.64 3 14.28 3 17 C2.01 17 1.02 17 0 17 C0 11.39 0 5.78 0 0 Z " fill="#38C760" transform="translate(58,61)"/>
<path d="M0 0 C2.27864583 0.06510417 4.55729167 0.13020833 6.8359375 0.1953125 C6.8359375 4.4853125 6.8359375 8.7753125 6.8359375 13.1953125 C5.8459375 13.1953125 4.8559375 13.1953125 3.8359375 13.1953125 C3.8359375 11.5453125 3.8359375 9.8953125 3.8359375 8.1953125 C0.72261502 8.86399564 0.72261502 8.86399564 -0.3515625 11.2578125 C-0.6196875 11.8971875 -0.8878125 12.5365625 -1.1640625 13.1953125 C-2.4840625 12.8653125 -3.8040625 12.5353125 -5.1640625 12.1953125 C-4.8134375 11.4734375 -4.4628125 10.7515625 -4.1015625 10.0078125 C-3.04761646 6.84597437 -3.47669613 5.37438197 -4.1640625 2.1953125 C-2.1640625 0.1953125 -2.1640625 0.1953125 0 0 Z " fill="#43CA69" transform="translate(268.1640625,136.8046875)"/>
<path d="M0 0 C2.27864583 0.06510417 4.55729167 0.13020833 6.8359375 0.1953125 C6.8359375 4.4853125 6.8359375 8.7753125 6.8359375 13.1953125 C5.8459375 13.1953125 4.8559375 13.1953125 3.8359375 13.1953125 C3.8359375 11.5453125 3.8359375 9.8953125 3.8359375 8.1953125 C2.8459375 8.1953125 1.8559375 8.1953125 0.8359375 8.1953125 C0.1759375 9.8453125 -0.4840625 11.4953125 -1.1640625 13.1953125 C-2.1540625 13.1953125 -3.1440625 13.1953125 -4.1640625 13.1953125 C-3.9784375 12.3084375 -3.7928125 11.4215625 -3.6015625 10.5078125 C-2.99121029 7.27709852 -2.99121029 7.27709852 -3.7265625 4.4453125 C-3.8709375 3.7028125 -4.0153125 2.9603125 -4.1640625 2.1953125 C-2.1640625 0.1953125 -2.1640625 0.1953125 0 0 Z " fill="#41C967" transform="translate(349.1640625,136.8046875)"/>
<path d="M0 0 C1.27875 -0.061875 2.5575 -0.12375 3.875 -0.1875 C4.95394531 -0.23970703 4.95394531 -0.23970703 6.0546875 -0.29296875 C6.69664062 -0.19628906 7.33859375 -0.09960938 8 0 C10.20914 3.31371 10.22481553 4.3446021 10.125 8.1875 C10.10695312 9.08855469 10.08890625 9.98960938 10.0703125 10.91796875 C10.03550781 11.94857422 10.03550781 11.94857422 10 13 C8.54207116 13.05399736 7.08357288 13.09279177 5.625 13.125 C4.81289062 13.14820312 4.00078125 13.17140625 3.1640625 13.1953125 C1 13 1 13 -1 11 C-0.44444444 6.44444444 -0.44444444 6.44444444 1 5 C2.66617115 4.95936168 4.33388095 4.957279 6 5 C6 4.01 6 3.02 6 2 C4.02 2 2.04 2 0 2 C0 1.34 0 0.68 0 0 Z " fill="#60D280" transform="translate(161,101)"/>
<path d="M0 0 C3.375 -0.125 3.375 -0.125 7 0 C9 2 9 2 9.1953125 4.6015625 C9.17210938 5.59929687 9.14890625 6.59703125 9.125 7.625 C9.10695313 8.62789062 9.08890625 9.63078125 9.0703125 10.6640625 C9.03550781 11.82035156 9.03550781 11.82035156 9 13 C7.54207116 13.05399736 6.08357288 13.09279177 4.625 13.125 C3.81289062 13.14820312 3.00078125 13.17140625 2.1640625 13.1953125 C0 13 0 13 -2 11 C-1.44444444 6.44444444 -1.44444444 6.44444444 0 5 C1.66617115 4.95936168 3.33388095 4.957279 5 5 C5 4.01 5 3.02 5 2 C3.35 2 1.7 2 0 2 C0 1.34 0 0.68 0 0 Z " fill="#48CB6D" transform="translate(77,65)"/>
<path d="M0 0 C3.375 -0.125 3.375 -0.125 7 0 C9 2 9 2 9.1953125 4.6015625 C9.17210937 5.59929687 9.14890625 6.59703125 9.125 7.625 C9.10695312 8.62789062 9.08890625 9.63078125 9.0703125 10.6640625 C9.03550781 11.82035156 9.03550781 11.82035156 9 13 C7.54207116 13.05399736 6.08357288 13.09279177 4.625 13.125 C3.81289062 13.14820312 3.00078125 13.17140625 2.1640625 13.1953125 C0 13 0 13 -2 11 C-1.44444444 6.44444444 -1.44444444 6.44444444 0 5 C1.99958364 4.95919217 4.00045254 4.95745644 6 5 C5.67 4.34 5.34 3.68 5 3 C2.47266765 2.34444881 2.47266765 2.34444881 0 2 C0 1.34 0 0.68 0 0 Z " fill="#43C969" transform="translate(190,101)"/>
<path d="M0 0 C3.375 -0.1875 3.375 -0.1875 7 0 C9.20914 3.31371 9.22481553 4.3446021 9.125 8.1875 C9.10695313 9.08855469 9.08890625 9.98960937 9.0703125 10.91796875 C9.03550781 11.94857422 9.03550781 11.94857422 9 13 C7.54207116 13.05399736 6.08357288 13.09279177 4.625 13.125 C3.81289063 13.14820313 3.00078125 13.17140625 2.1640625 13.1953125 C0 13 0 13 -2 11 C-1.44444444 6.44444444 -1.44444444 6.44444444 0 5 C1.99958364 4.95919217 4.00045254 4.95745644 6 5 C5.67 4.34 5.34 3.68 5 3 C2.47266765 2.34444881 2.47266765 2.34444881 0 2 C0 1.34 0 0.68 0 0 Z " fill="#45CA6A" transform="translate(59,137)"/>
<path d="M0 0 C3.375 -0.125 3.375 -0.125 7 0 C9 2 9 2 9.1953125 4.6015625 C9.17210938 5.59929687 9.14890625 6.59703125 9.125 7.625 C9.10695313 8.62789062 9.08890625 9.63078125 9.0703125 10.6640625 C9.03550781 11.82035156 9.03550781 11.82035156 9 13 C7.54207116 13.05399736 6.08357288 13.09279177 4.625 13.125 C3.81289062 13.14820312 3.00078125 13.17140625 2.1640625 13.1953125 C0 13 0 13 -2 11 C-1.625 8.375 -1.625 8.375 -1 6 C2.465 5.505 2.465 5.505 6 5 C5.67 4.34 5.34 3.68 5 3 C2.47266765 2.34444881 2.47266765 2.34444881 0 2 C0 1.34 0 0.68 0 0 Z " fill="#41C968" transform="translate(100,101)"/>
<path d="M0 0 C0.99 0 1.98 0 3 0 C3 3.63 3 7.26 3 11 C4.65 11 6.3 11 8 11 C8 7.37 8 3.74 8 0 C8.99 0 9.98 0 11 0 C11 3.3 11 6.6 11 10 C11.66 10 12.32 10 13 10 C13 12.31 13 14.62 13 17 C12.01 17 11.02 17 10 17 C10 15.68 10 14.36 10 13 C6.7 13 3.4 13 0 13 C0 8.71 0 4.42 0 0 Z " fill="#3DC864" transform="translate(304,65)"/>
<path d="M0 0 C3.375 -0.125 3.375 -0.125 7 0 C9 2 9 2 9.1953125 4.6015625 C9.17210938 5.59929687 9.14890625 6.59703125 9.125 7.625 C9.10695313 8.62789062 9.08890625 9.63078125 9.0703125 10.6640625 C9.03550781 11.82035156 9.03550781 11.82035156 9 13 C7.54207116 13.05399736 6.08357288 13.09279177 4.625 13.125 C3.81289062 13.14820312 3.00078125 13.17140625 2.1640625 13.1953125 C0 13 0 13 -2 11 C-1.625 8.375 -1.625 8.375 -1 6 C2.465 5.505 2.465 5.505 6 5 C5.67 4.34 5.34 3.68 5 3 C2.47266765 2.34444881 2.47266765 2.34444881 0 2 C0 1.34 0 0.68 0 0 Z " fill="#3FC866" transform="translate(110,65)"/>
<path d="M0 0 C3.375 -0.125 3.375 -0.125 7 0 C9 2 9 2 9.1953125 4.6015625 C9.17210937 5.59929687 9.14890625 6.59703125 9.125 7.625 C9.10695312 8.62789062 9.08890625 9.63078125 9.0703125 10.6640625 C9.03550781 11.82035156 9.03550781 11.82035156 9 13 C7.52093108 13.02689216 6.04172517 13.04634621 4.5625 13.0625 C3.32693359 13.07990234 3.32693359 13.07990234 2.06640625 13.09765625 C0 13 0 13 -1 12 C-1.1875 9.5625 -1.1875 9.5625 -1 7 C1 5 1 5 3.625 4.875 C4.40875 4.91625 5.1925 4.9575 6 5 C5.67 4.34 5.34 3.68 5 3 C2.47266765 2.34444881 2.47266765 2.34444881 0 2 C0 1.34 0 0.68 0 0 Z " fill="#59D07A" transform="translate(227,137)"/>
<path d="M0 0 C3.375 -0.125 3.375 -0.125 7 0 C9 2 9 2 9.1953125 4.6015625 C9.17210937 5.59929687 9.14890625 6.59703125 9.125 7.625 C9.10695313 8.62789062 9.08890625 9.63078125 9.0703125 10.6640625 C9.03550781 11.82035156 9.03550781 11.82035156 9 13 C7.52093108 13.02689216 6.04172517 13.04634621 4.5625 13.0625 C3.32693359 13.07990234 3.32693359 13.07990234 2.06640625 13.09765625 C0 13 0 13 -1 12 C-1.1875 9.5625 -1.1875 9.5625 -1 7 C1 5 1 5 3.625 4.875 C4.40875 4.91625 5.1925 4.9575 6 5 C5.67 4.34 5.34 3.68 5 3 C2.47266765 2.34444881 2.47266765 2.34444881 0 2 C0 1.34 0 0.68 0 0 Z " fill="#57CF79" transform="translate(276,101)"/>
<path d="M0 0 C3.375 -0.125 3.375 -0.125 7 0 C9 2 9 2 9.1953125 4.6015625 C9.17210937 5.59929687 9.14890625 6.59703125 9.125 7.625 C9.10695313 8.62789062 9.08890625 9.63078125 9.0703125 10.6640625 C9.03550781 11.82035156 9.03550781 11.82035156 9 13 C7.52093108 13.02689216 6.04172517 13.04634621 4.5625 13.0625 C3.32693359 13.07990234 3.32693359 13.07990234 2.06640625 13.09765625 C0 13 0 13 -1 12 C-1.1875 9.5625 -1.1875 9.5625 -1 7 C1 5 1 5 3.625 4.875 C4.40875 4.91625 5.1925 4.9575 6 5 C5.67 4.34 5.34 3.68 5 3 C2.47266765 2.34444881 2.47266765 2.34444881 0 2 C0 1.34 0 0.68 0 0 Z " fill="#58D07A" transform="translate(252,65)"/>
<path d="M0 0 C0.99 0 1.98 0 3 0 C3 1.65 3 3.3 3 5 C4.7015625 4.9690625 4.7015625 4.9690625 6.4375 4.9375 C10 5 10 5 11 6 C11.04080783 7.99958364 11.04254356 10.00045254 11 12 C7.57067929 13.71466036 3.78283935 13.05404056 0 13 C0 8.71 0 4.42 0 0 Z " fill="#43C969" transform="translate(320,137)"/>
<path d="M0 0 C0.99 0 1.98 0 3 0 C3.33 1.98 3.66 3.96 4 6 C4.598125 5.01 5.19625 4.02 5.8125 3 C6.534375 2.01 7.25625 1.02 8 0 C8.99 0 9.98 0 11 0 C11 4.29 11 8.58 11 13 C10.01 13 9.02 13 8 13 C7.67 11.02 7.34 9.04 7 7 C6.401875 7.99 5.80375 8.98 5.1875 10 C4.465625 10.99 3.74375 11.98 3 13 C2.01 13 1.02 13 0 13 C0 8.71 0 4.42 0 0 Z " fill="#49CB6E" transform="translate(293,137)"/>
<path d="M0 0 C0.99 0 1.98 0 3 0 C4.25664978 2.90600261 5 4.79604584 5 8 C5.66 8 6.32 8 7 8 C7.33 5.36 7.66 2.72 8 0 C9.32 0.33 10.64 0.66 12 1 C11.23970843 3.2748645 10.4673838 5.54435657 9.6875 7.8125 C9.47416016 8.45509766 9.26082031 9.09769531 9.04101562 9.75976562 C6.89140782 15.95191946 6.89140782 15.95191946 4 18 C1.3125 18.1875 1.3125 18.1875 -1 18 C-1 17.01 -1 16.02 -1 15 C0.32 14.67 1.64 14.34 3 14 C2.44600983 10.02973711 1.50059058 6.70145675 0 3 C0 2.01 0 1.02 0 0 Z " fill="#4ECD71" transform="translate(126,101)"/>
<path d="M0 0 C1.32 0 2.64 0 4 0 C4.33 0.99 4.66 1.98 5 3 C5.99 2.01 6.98 1.02 8 0 C8.99 0.33 9.98 0.66 11 1 C10.01 2.32 9.02 3.64 8 5 C8.28875 5.5775 8.5775 6.155 8.875 6.75 C10.4375 9.875 10.4375 9.875 12 13 C8.73045798 12.43628586 7.17424117 11.50037734 5 9 C4.67 10.32 4.34 11.64 4 13 C2.68 13 1.36 13 0 13 C0 8.71 0 4.42 0 0 Z " fill="#58CF79" transform="translate(118,137)"/>
<path d="M0 0 C2 2 2 2 2.125 4.625 C2.08375 5.40875 2.0425 6.1925 2 7 C-0.64 7 -3.28 7 -6 7 C-4.33045181 10.22404978 -4.33045181 10.22404978 -1.375 10.6875 C-0.59125 10.790625 0.1925 10.89375 1 11 C1 11.66 1 12.32 1 13 C-5.34507042 13.35915493 -5.34507042 13.35915493 -7.9375 11.9375 C-9.6140629 8.88023824 -9.36528977 6.4093712 -9 3 C-6.8388936 -0.72190547 -4.01418597 -0.42704106 0 0 Z " fill="#5FD17F" transform="translate(251,101)"/>
<path d="M0 0 C0.99 0 1.98 0 3 0 C3 1.65 3 3.3 3 5 C4.423125 4.9690625 4.423125 4.9690625 5.875 4.9375 C9 5 9 5 11 6 C11.125 8.375 11.125 8.375 11 11 C9 13 9 13 6.8359375 13.1953125 C4.55729167 13.13020833 2.27864583 13.06510417 0 13 C0 8.71 0 4.42 0 0 Z " fill="#41C968" transform="translate(319,65)"/>
<path d="M0 0 C0.99 0 1.98 0 3 0 C3 1.65 3 3.3 3 5 C3.94875 4.95875 4.8975 4.9175 5.875 4.875 C9 5 9 5 11 7 C10.44444444 11.55555556 10.44444444 11.55555556 9 13 C5.99668982 13.14193337 3.00782866 13.04236378 0 13 C0 8.71 0 4.42 0 0 Z " fill="#3AC762" transform="translate(138,65)"/>
<path d="M0 0 C2.97 0 5.94 0 9 0 C9 4.29 9 8.58 9 13 C8.01 13 7.02 13 6 13 C6 9.7 6 6.4 6 3 C5.01 3 4.02 3 3 3 C2.8453125 4.6396875 2.8453125 4.6396875 2.6875 6.3125 C2 10 2 10 0.625 11.9375 C-1 13 -1 13 -4 13 C-4 12.01 -4 11.02 -4 10 C-3.01 9.34 -2.02 8.68 -1 8 C-0.42251197 6.03638136 -0.42251197 6.03638136 -0.3125 3.875 C-0.209375 2.59625 -0.10625 1.3175 0 0 Z " fill="#44CA6A" transform="translate(125,65)"/>
<path d="M0 0 C0.99 0 1.98 0 3 0 C3 1.65 3 3.3 3 5 C4.65 5 6.3 5 8 5 C8 3.35 8 1.7 8 0 C8.99 0 9.98 0 11 0 C11 4.29 11 8.58 11 13 C10.01 13 9.02 13 8 13 C8 11.02 8 9.04 8 7 C6.35 7 4.7 7 3 7 C3 8.98 3 10.96 3 13 C2.01 13 1.02 13 0 13 C0 8.71 0 4.42 0 0 Z " fill="#46CA6B" transform="translate(212,137)"/>
<path d="M0 0 C3.3 0 6.6 0 10 0 C10 4.29 10 8.58 10 13 C9.01 13 8.02 13 7 13 C7 9.37 7 5.74 7 2 C5.68 2 4.36 2 3 2 C3.061875 3.0725 3.12375 4.145 3.1875 5.25 C2.99562206 9.0875589 2.77526522 10.43030998 0 13 C-0.99 13 -1.98 13 -3 13 C-2.68289062 12.43796875 -2.36578125 11.8759375 -2.0390625 11.296875 C-0.93125475 8.84803683 -0.61024601 6.91612145 -0.375 4.25 C-0.25125 2.8475 -0.1275 1.445 0 0 Z " fill="#46CA6B" transform="translate(73,137)"/>
<path d="M0 0 C0.99 0 1.98 0 3 0 C3 1.65 3 3.3 3 5 C4.65 5 6.3 5 8 5 C8 3.35 8 1.7 8 0 C8.99 0 9.98 0 11 0 C11 4.29 11 8.58 11 13 C10.01 13 9.02 13 8 13 C8 11.02 8 9.04 8 7 C6.35 7 4.7 7 3 7 C3 8.98 3 10.96 3 13 C2.01 13 1.02 13 0 13 C0 8.71 0 4.42 0 0 Z " fill="#46CA6B" transform="translate(228,101)"/>
<path d="M0 0 C0.99 0 1.98 0 3 0 C3 1.65 3 3.3 3 5 C4.65 5 6.3 5 8 5 C8 3.35 8 1.7 8 0 C8.99 0 9.98 0 11 0 C11 4.29 11 8.58 11 13 C10.01 13 9.02 13 8 13 C8 11.02 8 9.04 8 7 C6.35 7 4.7 7 3 7 C3 8.98 3 10.96 3 13 C2.01 13 1.02 13 0 13 C0 8.71 0 4.42 0 0 Z " fill="#35C65E" transform="translate(146,101)"/>
<path d="M0 0 C1.670625 0.061875 1.670625 0.061875 3.375 0.125 C3.375 0.785 3.375 1.445 3.375 2.125 C1.395 2.785 -0.585 3.445 -2.625 4.125 C-1.305 4.455 0.015 4.785 1.375 5.125 C1.375 6.115 1.375 7.105 1.375 8.125 C0.055 8.125 -1.265 8.125 -2.625 8.125 C-2.625 8.785 -2.625 9.445 -2.625 10.125 C-0.315 10.125 1.995 10.125 4.375 10.125 C4.375 11.115 4.375 12.105 4.375 13.125 C-2.98770368 13.60780024 -2.98770368 13.60780024 -5.6875 11.5625 C-7.01774773 8.1038559 -6.48107025 5.6809841 -5.625 2.125 C-3.625 0.125 -3.625 0.125 0 0 Z " fill="#50CD73" transform="translate(294.625,100.875)"/>
<path d="M0 0 C2.31 0.33 4.62 0.66 7 1 C7 1.99 7 2.98 7 4 C5.68 4 4.36 4 3 4 C3 8.95 3 13.9 3 19 C1.68 19 0.36 19 -1 19 C-1 3 -1 3 0 0 Z " fill="#8EDFA5" transform="translate(285,59)"/>
<path d="M0 0 C0 0.66 0 1.32 0 2 C0.66 2 1.32 2 2 2 C2 4.97 2 7.94 2 11 C1.34 11 0.68 11 0 11 C0 11.66 0 12.32 0 13 C-2.475 12.01 -2.475 12.01 -5 11 C-5.75 7.75 -5.75 7.75 -6 4 C-3.02564103 0 -3.02564103 0 0 0 Z " fill="#53CE76" transform="translate(270,65)"/>
<path d="M0 0 C6.0546875 -0.1953125 6.0546875 -0.1953125 8 0 C10 2 10 2 10.265625 4.09375 C10.26046875 4.8878125 10.2553125 5.681875 10.25 6.5 C10.25515625 7.2940625 10.2603125 8.088125 10.265625 8.90625 C10 11 10 11 8 13 C5.31160615 13.26991906 2.70858064 13.08737357 0 13 C0 12.34 0 11.68 0 11 C1.98 10.67 3.96 10.34 6 10 C6 9.34 6 8.68 6 8 C4.68 7.67 3.36 7.34 2 7 C2 6.34 2 5.68 2 5 C3.32 5 4.64 5 6 5 C6 4.01 6 3.02 6 2 C4.02 2.33 2.04 2.66 0 3 C0 2.01 0 1.02 0 0 Z " fill="#52CE75" transform="translate(245,137)"/>
<path d="M0 0 C3.875 1.875 3.875 1.875 5 3 C5.26293056 7.03160191 5.29404844 8.55892734 3 12 C1.35 11.67 -0.3 11.34 -2 11 C-3.35384615 4.6 -3.35384615 4.6 -1.5625 1.5625 C-1.046875 1.046875 -0.53125 0.53125 0 0 Z " fill="#8A8989" transform="translate(171,263)"/>
<path d="M0 0 C0.2475 0.556875 0.495 1.11375 0.75 1.6875 C2.21606015 4.39971127 4.02989471 6.63587365 6 9 C5.071875 9.45375 4.14375 9.9075 3.1875 10.375 C-0.03921389 11.9421633 -0.03921389 11.9421633 -3 14 C-3.45375 13.071875 -3.9075 12.14375 -4.375 11.1875 C-5.9421633 7.96078611 -5.9421633 7.96078611 -8 5 C-6.865625 4.54625 -5.73125 4.0925 -4.5625 3.625 C-0.95278308 2.42904194 -0.95278308 2.42904194 0 0 Z " fill="#BFE9CB" transform="translate(447,83)"/>
<path d="M0 0 C2 0.75 2 0.75 4 3.75 C3.9375 6.25 3.9375 6.25 3 8.75 C0.4375 10.5625 0.4375 10.5625 -2 11.75 C-2 11.09 -2 10.43 -2 9.75 C-2.66 9.75 -3.32 9.75 -4 9.75 C-4 6.78 -4 3.81 -4 0.75 C-2 -0.25 -2 -0.25 0 0 Z " fill="#5AD07C" transform="translate(177,66.25)"/>
<path d="M0 0 C2.64 0 5.28 0 8 0 C8.34274406 1.66475686 8.67364302 3.33195323 9 5 C9.3403125 6.5778125 9.3403125 6.5778125 9.6875 8.1875 C9.790625 9.115625 9.89375 10.04375 10 11 C8 13 8 13 6.0546875 13.1953125 C4.03645833 13.13020833 2.01822917 13.06510417 0 13 C0.33 12.01 0.66 11.02 1 10 C2.65 10 4.3 10 6 10 C6 9.34 6 8.68 6 8 C4.68 7.67 3.36 7.34 2 7 C2 6.34 2 5.68 2 5 C3.32 5 4.64 5 6 5 C6 4.01 6 3.02 6 2 C4.02 2 2.04 2 0 2 C0 1.34 0 0.68 0 0 Z " fill="#3EC865" transform="translate(202,101)"/>
<path d="M0 0 C4.875 0.875 4.875 0.875 6 2 C6.23728814 8.52542373 6.23728814 8.52542373 5 11 C3.35 11 1.7 11 0 11 C-1.49297212 8.01405576 -1.11755228 5.29146376 -1 2 C-0.67 1.34 -0.34 0.68 0 0 Z " fill="#858484" transform="translate(204,264)"/>
<path d="M0 0 C1 1 1 1 1.375 4.375 C1.25125 5.57125 1.1275 6.7675 1 8 C-1.5 9.9375 -1.5 9.9375 -4 11 C-4 10.34 -4 9.68 -4 9 C-4.66 9 -5.32 9 -6 9 C-6 6.03 -6 3.06 -6 0 C-3.49749232 -1.25125384 -2.59701335 -0.83774624 0 0 Z " fill="#49CB6D" transform="translate(280,67)"/>
<path d="M0 0 C0 0.66 0 1.32 0 2 C-1.98 2.66 -3.96 3.32 -6 4 C-5.67 5.98 -5.34 7.96 -5 10 C-3.35 10.33 -1.7 10.66 0 11 C0 11.66 0 12.32 0 13 C-6.3782235 13.36103152 -6.3782235 13.36103152 -8.9375 11.875 C-10.51108304 9.09808875 -10.38420899 7.13770673 -10 4 C-7.82605633 -0.85940349 -4.92562519 -0.3717453 0 0 Z " fill="#45CA6B" transform="translate(343,137)"/>
<path d="M0 0 C1.65 0.33 3.3 0.66 5 1 C5.33 1.99 5.66 2.98 6 4 C6.66 4.33 7.32 4.66 8 5 C7.67 6.65 7.34 8.3 7 10 C6.01 10.33 5.02 10.66 4 11 C4 10.34 4 9.68 4 9 C2.35 9 0.7 9 -1 9 C-1 7.68 -1 6.36 -1 5 C0.32 4.67 1.64 4.34 3 4 C2.01 3.67 1.02 3.34 0 3 C0 2.01 0 1.02 0 0 Z " fill="#81DB9B" transform="translate(186,139)"/>
<path d="M0 0 C1.670625 0.061875 1.670625 0.061875 3.375 0.125 C3.375 0.785 3.375 1.445 3.375 2.125 C1.395 2.785 -0.585 3.445 -2.625 4.125 C-2.625 5.775 -2.625 7.425 -2.625 9.125 C-0.645 9.785 1.335 10.445 3.375 11.125 C3.375 11.785 3.375 12.445 3.375 13.125 C-3.0083448 13.60676187 -3.0083448 13.60676187 -5.625 11.5625 C-7.04470326 8.10197331 -6.48801515 5.70983216 -5.625 2.125 C-3.625 0.125 -3.625 0.125 0 0 Z " fill="#3DC864" transform="translate(112.625,136.875)"/>
<path d="M0 0 C3.96 0 7.92 0 12 0 C12 0.66 12 1.32 12 2 C10.35 2 8.7 2 7 2 C7 5.63 7 9.26 7 13 C6.01 13 5.02 13 4 13 C4 9.37 4 5.74 4 2 C2.68 2 1.36 2 0 2 C0 1.34 0 0.68 0 0 Z " fill="#42C968" transform="translate(197,65)"/>
<path d="M0 0 C3.63 0 7.26 0 11 0 C11 0.66 11 1.32 11 2 C9.68 2 8.36 2 7 2 C7 5.63 7 9.26 7 13 C6.01 13 5.02 13 4 13 C4 9.37 4 5.74 4 2 C2.68 2 1.36 2 0 2 C0 1.34 0 0.68 0 0 Z " fill="#3EC865" transform="translate(307,137)"/>
<path d="M0 0 C3.63 0 7.26 0 11 0 C11 0.66 11 1.32 11 2 C9.68 2 8.36 2 7 2 C7 5.63 7 9.26 7 13 C6.01 13 5.02 13 4 13 C4 9.37 4 5.74 4 2 C2.68 2 1.36 2 0 2 C0 1.34 0 0.68 0 0 Z " fill="#44CA6A" transform="translate(57,101)"/>
<path d="M0 0 C3.08543044 1.71412802 6.00217547 3.42130036 8.8125 5.5625 C8.8125 6.2225 8.8125 6.8825 8.8125 7.5625 C6.03258044 6.52995845 3.75392498 5.52149749 1.3125 3.8125 C-1.11970923 2.25744154 -1.11970923 2.25744154 -3.6875 3.1875 C-5.43774371 4.15013404 -7.16567298 5.15395343 -8.875 6.1875 C-11.1875 7.5625 -11.1875 7.5625 -13.1875 7.5625 C-11.77817811 3.33453432 -9.3590534 2.46393312 -5.53125 0.453125 C-3.1875 -0.4375 -3.1875 -0.4375 0 0 Z " fill="#8F8F8F" transform="translate(192.1875,283.4375)"/>
<path d="M0 0 C3.53571429 0.53571429 3.53571429 0.53571429 5 2 C5.1875 4.4375 5.1875 4.4375 5 7 C4.34 7.66 3.68 8.32 3 9 C-0.53571429 8.46428571 -0.53571429 8.46428571 -2 7 C-2.1875 4.5625 -2.1875 4.5625 -2 2 C-1.34 1.34 -0.68 0.68 0 0 Z " fill="#E1F6E7" transform="translate(337,67)"/>
<path d="M0 0 C0.99 0 1.98 0 3 0 C3.33 1.98 3.66 3.96 4 6 C4.66 6 5.32 6 6 6 C5.25 8.9375 5.25 8.9375 4 12 C2.68 12.33 1.36 12.66 0 13 C0 8.71 0 4.42 0 0 Z " fill="#3FC966" transform="translate(293,137)"/>
<path d="M0 0 C1.32 0 2.64 0 4 0 C4.02696365 1.79158489 4.04637917 3.58328473 4.0625 5.375 C4.07410156 6.37273437 4.08570313 7.37046875 4.09765625 8.3984375 C4 11 4 11 3 13 C2.01 12.67 1.02 12.34 0 12 C0 8.04 0 4.08 0 0 Z " fill="#6AD488" transform="translate(360,132)"/>
<path d="M0 0 C2.64 0 5.28 0 8 0 C8 0.66 8 1.32 8 2 C6.35 2 4.7 2 3 2 C3 5.63 3 9.26 3 13 C2.01 13 1.02 13 0 13 C0 8.71 0 4.42 0 0 Z " fill="#3AC762" transform="translate(348,65)"/>
<path d="M0 0 C2.64 0 5.28 0 8 0 C8 0.66 8 1.32 8 2 C6.35 2 4.7 2 3 2 C3 5.63 3 9.26 3 13 C2.01 13 1.02 13 0 13 C0 8.71 0 4.42 0 0 Z " fill="#40C966" transform="translate(226,65)"/>
<path d="M0 0 C4.875 0.875 4.875 0.875 6 2 C6.1875 4.4375 6.1875 4.4375 6 7 C5.34 7.66 4.68 8.32 4 9 C1.875 8.625 1.875 8.625 0 8 C0 5.36 0 2.72 0 0 Z " fill="#E4F7EA" transform="translate(177,103)"/>
<path d="M0 0 C2.125 0.375 2.125 0.375 4 1 C4 3.31 4 5.62 4 8 C2.125 8.625 2.125 8.625 0 9 C-2 7 -2 7 -2.25 4.5 C-2 2 -2 2 0 0 Z " fill="#ECF9F0" transform="translate(201,139)"/>
<path d="M0 0 C2.125 0.375 2.125 0.375 4 1 C4 3.31 4 5.62 4 8 C2.125 8.625 2.125 8.625 0 9 C-2 7 -2 7 -2.25 4.5 C-2 2 -2 2 0 0 Z " fill="#EBF9EF" transform="translate(166,139)"/>
<path d="M0 0 C2.125 0.375 2.125 0.375 4 1 C4 3.31 4 5.62 4 8 C2.125 8.625 2.125 8.625 0 9 C-2 7 -2 7 -2.25 4.5 C-2 2 -2 2 0 0 Z " fill="#ECF9F0" transform="translate(215,67)"/>
<path d="M0 0 C2.125 0.375 2.125 0.375 4 1 C4 3.31 4 5.62 4 8 C2.125 8.625 2.125 8.625 0 9 C-2 7 -2 7 -2.25 4.5 C-2 2 -2 2 0 0 Z " fill="#ECF9EF" transform="translate(188,67)"/>
<path d="M0 0 C2.0625 0.4375 2.0625 0.4375 4 1 C4 3.31 4 5.62 4 8 C2.125 8.625 2.125 8.625 0 9 C-0.66 8.34 -1.32 7.68 -2 7 C-1.43181818 1.43181818 -1.43181818 1.43181818 0 0 Z " fill="#ECF9F0" transform="translate(136,139)"/>
<path d="M0 0 C2.0625 0.4375 2.0625 0.4375 4 1 C4.625 3.3125 4.625 3.3125 5 6 C4.01 7.485 4.01 7.485 3 9 C1.68 8.67 0.36 8.34 -1 8 C-1.04241723 5.66705225 -1.04092937 3.33297433 -1 1 C-0.67 0.67 -0.34 0.34 0 0 Z " fill="#ECF9F0" transform="translate(74,103)"/>
<path d="M0 0 C2.0625 0.4375 2.0625 0.4375 4 1 C4 3.31 4 5.62 4 8 C2.68 8.33 1.36 8.66 0 9 C-2 6 -2 6 -1.6875 3.375 C-1 1 -1 1 0 0 Z " fill="#ECF9F0" transform="translate(363,67)"/>
<path d="M0 0 C0.66 0.33 1.32 0.66 2 1 C1.814375 2.11375 1.62875 3.2275 1.4375 4.375 C0.68319343 7.82568861 0.68319343 7.82568861 2 10 C2.99 10.33 3.98 10.66 5 11 C5 11.66 5 12.32 5 13 C2.6875 13.25 2.6875 13.25 0 13 C-1.875 11.4375 -1.875 11.4375 -3 9 C-2.67272727 2.67272727 -2.67272727 2.67272727 0 0 Z " fill="#42C968" transform="translate(361,65)"/>
<path d="M0 0 C1.65 0.33 3.3 0.66 5 1 C5 3.97 5 6.94 5 10 C1.23312136 8.11656068 0.20578354 7.30867531 -2 4 C-1.34 2.68 -0.68 1.36 0 0 Z " fill="#6ED68B" transform="translate(166,66)"/>
<path d="M0 0 C0.66 0.33 1.32 0.66 2 1 C1.67 3.64 1.34 6.28 1 9 C2.32 9.66 3.64 10.32 5 11 C5 11.66 5 12.32 5 13 C2.6875 13.25 2.6875 13.25 0 13 C-1.875 11.4375 -1.875 11.4375 -3 9 C-2.67272727 2.67272727 -2.67272727 2.67272727 0 0 Z " fill="#3FC866" transform="translate(213,65)"/>
<path d="M0 0 C2.475 0.495 2.475 0.495 5 1 C5 3.31 5 5.62 5 8 C3.0625 8.5625 3.0625 8.5625 1 9 C0 8 0 8 -0.09765625 6.15234375 C-0.06510417 4.1015625 -0.03255208 2.05078125 0 0 Z " fill="#EEFAF1" transform="translate(150,139)"/>
<path d="M0 0 C0.99 0 1.98 0 3 0 C3 4.29 3 8.58 3 13 C2.01 13 1.02 13 0 13 C0 8.71 0 4.42 0 0 Z " fill="#35C65E" transform="translate(215,101)"/>
<path d="M0 0 C0.99 0 1.98 0 3 0 C3 4.29 3 8.58 3 13 C2.01 13 1.02 13 0 13 C0 8.71 0 4.42 0 0 Z " fill="#46CA6B" transform="translate(291,65)"/>
<path d="M0 0 C0.99 0 1.98 0 3 0 C3 4.29 3 8.58 3 13 C2.01 13 1.02 13 0 13 C0 8.71 0 4.42 0 0 Z " fill="#4ECD72" transform="translate(284,65)"/>
<path d="M0 0 C0.66 0 1.32 0 2 0 C3.2890625 1.53125 3.2890625 1.53125 4.625 3.5 C5.07101563 4.1496875 5.51703125 4.799375 5.9765625 5.46875 C6.31429687 5.9740625 6.65203125 6.479375 7 7 C5.68 7.33 4.36 7.66 3 8 C2.01 6.68 1.02 5.36 0 4 C-0.66 5.32 -1.32 6.64 -2 8 C-2.125 5.125 -2.125 5.125 -2 2 C-1.34 1.34 -0.68 0.68 0 0 Z " fill="#4BCC70" transform="translate(100,70)"/>
<path d="M0 0 C2.475 0.495 2.475 0.495 5 1 C5 2.65 5 4.3 5 6 C3.35 6.33 1.7 6.66 0 7 C0 4.69 0 2.38 0 0 Z " fill="#FEFEFE" transform="translate(116,104)"/>
<path d="M0 0 C2.475 0.495 2.475 0.495 5 1 C5 2.65 5 4.3 5 6 C3.35 6.33 1.7 6.66 0 7 C0 4.69 0 2.38 0 0 Z " fill="#FEFEFE" transform="translate(240,68)"/>
<path d="M0 0 C0.99 0 1.98 0 3 0 C2.125 4.875 2.125 4.875 1 6 C-1.67058851 6.14115161 -4.32432238 6.04247107 -7 6 C-7 5.34 -7 4.68 -7 4 C-5.02 3.67 -3.04 3.34 -1 3 C-0.67 2.01 -0.34 1.02 0 0 Z " fill="#3CC864" transform="translate(252,144)"/>
<path d="M0 0 C4.70588235 0.70588235 4.70588235 0.70588235 6 2 C6.04063832 3.66617115 6.042721 5.33388095 6 7 C3.36 6.67 0.72 6.34 -2 6 C-2 5.67 -2 5.34 -2 5 C-0.35 4.67 1.3 4.34 3 4 C1.68 3.01 0.36 2.02 -1 1 C-0.67 0.67 -0.34 0.34 0 0 Z " fill="#3FC866" transform="translate(91,137)"/>
<path d="M0 0 C0.33 0 0.66 0 1 0 C1.268125 1.134375 1.53625 2.26875 1.8125 3.4375 C2.204375 4.613125 2.59625 5.78875 3 7 C3.99 7.33 4.98 7.66 6 8 C6 8.66 6 9.32 6 10 C3.625 10.125 3.625 10.125 1 10 C-1 8 -1 8 -1.1875 4.4375 C-1 1 -1 1 0 0 Z " fill="#3BC763" transform="translate(133,140)"/>
<path d="M0 0 C4.70588235 0.70588235 4.70588235 0.70588235 6 2 C6.04063832 3.66617115 6.042721 5.33388095 6 7 C3.69 7 1.38 7 -1 7 C-1 6.67 -1 6.34 -1 6 C0.65 6 2.3 6 4 6 C2.16666667 2.83333333 2.16666667 2.83333333 -1 1 C-0.67 0.67 -0.34 0.34 0 0 Z " fill="#3AC762" transform="translate(247,101)"/>
<path d="M0 0 C0.66 0 1.32 0 2 0 C3.2890625 1.53125 3.2890625 1.53125 4.625 3.5 C5.07101563 4.1496875 5.51703125 4.799375 5.9765625 5.46875 C6.31429687 5.9740625 6.65203125 6.479375 7 7 C6.01 7.33 5.02 7.66 4 8 C2.35 6.35 0.7 4.7 -1 3 C-0.67 2.01 -0.34 1.02 0 0 Z " fill="#41C967" transform="translate(123,142)"/>
<path d="M0 0 C1.32 0.33 2.64 0.66 4 1 C4 2.65 4 4.3 4 6 C2.68 6.33 1.36 6.66 0 7 C0 4.69 0 2.38 0 0 Z " fill="#F2FBF5" transform="translate(274,68)"/>
<path d="M0 0 C3.125 -0.1875 3.125 -0.1875 6 0 C5.34 1.32 4.68 2.64 4 4 C1.03 3.505 1.03 3.505 -2 3 C-1.34 2.01 -0.68 1.02 0 0 Z " fill="#969595" transform="translate(96,405)"/>
<path d="M0 0 C1.32 0 2.64 0 4 0 C3.67 1.98 3.34 3.96 3 6 C2.01 6.33 1.02 6.66 0 7 C0 4.69 0 2.38 0 0 Z " fill="#57CF78" transform="translate(301,111)"/>
<path d="M0 0 C1.65 0 3.3 0 5 0 C5 1.32 5 2.64 5 4 C3.35 4 1.7 4 0 4 C0 2.68 0 1.36 0 0 Z " fill="#D5F3DD" transform="translate(185,144)"/>
<path d="M0 0 C0.66 0 1.32 0 2 0 C2 2.31 2 4.62 2 7 C0.68 6.34 -0.64 5.68 -2 5 C-1.125 1.125 -1.125 1.125 0 0 Z " fill="#F7FCF9" transform="translate(269,68)"/>
<path d="M0 0 C1.65 0 3.3 0 5 0 C5 1.32 5 2.64 5 4 C3.35 4 1.7 4 0 4 C0 2.68 0 1.36 0 0 Z " fill="#E0F6E6" transform="translate(323,144)"/>
<path d="M0 0 C1.65 0 3.3 0 5 0 C5 1.32 5 2.64 5 4 C3.35 4 1.7 4 0 4 C0 2.68 0 1.36 0 0 Z " fill="#E2F7E8" transform="translate(88,108)"/>
<path d="M0 0 C1.65 0 3.3 0 5 0 C5 1.32 5 2.64 5 4 C3.35 4 1.7 4 0 4 C0 2.68 0 1.36 0 0 Z " fill="#E3F7E9" transform="translate(322,72)"/>
<path d="M0 0 C0.99 0 1.98 0 3 0 C2.67 1.98 2.34 3.96 2 6 C1.01 6.33 0.02 6.66 -1 7 C-0.67 4.69 -0.34 2.38 0 0 Z " fill="#43CA69" transform="translate(152,75)"/>
<path d="M0 0 C0.66 0 1.32 0 2 0 C2 2.31 2 4.62 2 7 C1.01 6.67 0.02 6.34 -1 6 C-1.042721 4.33388095 -1.04063832 2.66617115 -1 1 C-0.67 0.67 -0.34 0.34 0 0 Z " fill="#FBFDFB" transform="translate(168,68)"/>
<path d="M0 0 C0.99 0.33 1.98 0.66 3 1 C3 2.65 3 4.3 3 6 C2.01 6.33 1.02 6.66 0 7 C0 4.69 0 2.38 0 0 Z " fill="#FDFEFD" transform="translate(174,68)"/>
<path d="M0 0 C1.32 0 2.64 0 4 0 C4 1.32 4 2.64 4 4 C2.35 3.67 0.7 3.34 -1 3 C-0.67 2.01 -0.34 1.02 0 0 Z " fill="#DFF6E6" transform="translate(61,144)"/>
<path d="M0 0 C2.475 0.495 2.475 0.495 5 1 C4.67 1.99 4.34 2.98 4 4 C2.68 4 1.36 4 0 4 C0 2.68 0 1.36 0 0 Z " fill="#E8F8ED" transform="translate(282,144)"/>
<path d="M0 0 C1.32 0 2.64 0 4 0 C4 1.32 4 2.64 4 4 C2.35 3.67 0.7 3.34 -1 3 C-0.67 2.01 -0.34 1.02 0 0 Z " fill="#F0FAF3" transform="translate(349,139)"/>
<path d="M0 0 C1.32 0 2.64 0 4 0 C4 1.32 4 2.64 4 4 C2.35 3.67 0.7 3.34 -1 3 C-0.67 2.01 -0.34 1.02 0 0 Z " fill="#EDFAF1" transform="translate(268,139)"/>
<path d="M0 0 C0.99 0 1.98 0 3 0 C2.67 1.98 2.34 3.96 2 6 C1.01 6 0.02 6 -1 6 C-0.67 4.02 -0.34 2.04 0 0 Z " fill="#43C969" transform="translate(258,131)"/>
<path d="M0 0 C1.32 0 2.64 0 4 0 C4 1.32 4 2.64 4 4 C2.35 3.67 0.7 3.34 -1 3 C-0.67 2.01 -0.34 1.02 0 0 Z " fill="#DCF5E3" transform="translate(192,108)"/>
<path d="M0 0 C1.32 0 2.64 0 4 0 C4 1.32 4 2.64 4 4 C2.35 3.67 0.7 3.34 -1 3 C-0.67 2.01 -0.34 1.02 0 0 Z " fill="#E0F6E6" transform="translate(102,108)"/>
<path d="M0 0 C1.32 0 2.64 0 4 0 C4 1.32 4 2.64 4 4 C2.35 3.67 0.7 3.34 -1 3 C-0.67 2.01 -0.34 1.02 0 0 Z " fill="#DFF6E5" transform="translate(112,72)"/>
<path d="M0 0 C1.32 0 2.64 0 4 0 C4 1.32 4 2.64 4 4 C2.35 3.67 0.7 3.34 -1 3 C-0.67 2.01 -0.34 1.02 0 0 Z " fill="#DBF4E2" transform="translate(79,72)"/>
<path d="M0 0 C2.475 0.495 2.475 0.495 5 1 C4.67 1.99 4.34 2.98 4 4 C2.68 4 1.36 4 0 4 C0 2.68 0 1.36 0 0 Z " fill="#F3FBF5" transform="translate(141,72)"/>
<path d="M0 0 C0.66 0.33 1.32 0.66 2 1 C1.34 2.32 0.68 3.64 0 5 C-0.33 4.67 -0.66 4.34 -1 4 C-1.33 5.65 -1.66 7.3 -2 9 C-2.33 9 -2.66 9 -3 9 C-3.36923077 3.46153846 -3.36923077 3.46153846 -1.5 1.125 C-1.005 0.75375 -0.51 0.3825 0 0 Z " fill="#59D07A" transform="translate(134,137)"/>
</svg>
